<svg xmlns="http://www.w3.org/2000/svg" xmlns:xlink="http://www.w3.org/1999/xlink" id="Layer_1" x="0" y="0" version="1.1" viewBox="0 0 321.33 350.67" style="enable-background:new 0 0 321.33 350.67" xml:space="preserve"><style type="text/css">.st0{fill:url(#SVGID_1_)}.st1{fill:#595a5a}.st2{fill:url(#SVGID_2_)}.st3{fill:#4e4e50}</style><g><g><g><g><linearGradient id="SVGID_1_" x1="160.667" x2="160.667" y1="21.584" y2="332.163" gradientTransform="matrix(1 0 0 -1 0 352.2068)" gradientUnits="userSpaceOnUse"><stop offset="0" style="stop-color:#4e4e50"/><stop offset=".182" style="stop-color:#4f555d"/><stop offset=".552" style="stop-color:#4d6883"/><stop offset="1" style="stop-color:#3484c1"/></linearGradient><path d="M297.53,330.62H23.8V20.04h273.73V330.62z M26.3,328.13h268.73V22.54H26.3V328.13z" class="st0"/></g><g><g><g><g><polygon points="168.37 168.93 192.04 187.7 192.04 198.96 178.29 189.04 178.29 225.84 191.25 231.96 191.25 242.98 178.36 237.76 178.36 279.59 192.54 281.14 192.54 293.7 168.37 293.7" class="st1"/><path d="M229.49,217.67l-6.99-5.6v81.62h7.38c6.95-0.39,6.96-9.87,6.96-9.91l0.43-9.67v-40.26 C237.27,227.57,234.41,221.61,229.49,217.67z M229.79,285.54l-2.03,0.04l0.39-61.39l1.39,1.08c2.14,1.67,3.4,4.23,3.4,6.95 l-0.08,48.93C232.85,281.15,232.79,285.41,229.79,285.54z" class="st1"/><polygon points="201.04 194.9 217.74 208.27 217.74 217.23 208.86 210.76 208.65 240.84 216.98 244.59 216.98 253.63 208.57 250.15 208.57 293.7 200.84 293.7" class="st1"/></g></g><linearGradient id="SVGID_2_" x1="160.667" x2="160.667" y1="34.189" y2="445.39" gradientUnits="userSpaceOnUse"><stop offset="0" style="stop-color:#007fbf"/><stop offset=".177" style="stop-color:#1087c3"/><stop offset=".526" style="stop-color:#3b9dce"/><stop offset="1" style="stop-color:#7fbfdf"/></linearGradient><path d="M168.37,67.67l7.43,5.99v91.84l-7.43-5.93V67.67z M183.5,171.7l7.43,5.93V85.79l-7.43-5.99V171.7z M199.42,184.46l7.43,5.93V98.55l-7.43-5.99V184.46z M214.6,196.63l7.43,5.93v-91.84l-7.43-5.99V196.63z M229.85,208.95 l7.43,5.93v-91.84l-7.43-5.99V208.95z M37.4,33.64V293.7h119.4V67.77l-28.03,23.41V157l-27.51,23.38v52.66l-18.61,15.65V284 H46.76V43.35h227.82V284H257.1v9.7h26.83V33.64H37.4z" class="st2"/></g><g><path d="M39.66,307v3.06h3.88v1.81h-3.88v3.23h4.38v1.81H37.3v-11.71h6.74V307H39.66z" class="st3"/><path d="M48.99,315.12h3.75v1.79h-6.11v-11.68h2.36V315.12z" class="st3"/><path d="M56.87,307v3.06h3.88v1.81h-3.88v3.23h4.38v1.81h-6.74v-11.71h6.74V307H56.87z" class="st3"/><path d="M72.56,306.03c0.99,0.65,1.69,1.56,2.12,2.73h-2.83c-0.52-1.03-1.42-1.54-2.68-1.54 c-0.7,0-1.32,0.16-1.87,0.47c-0.54,0.31-0.96,0.76-1.26,1.34c-0.3,0.58-0.45,1.25-0.45,2.01c0,0.76,0.15,1.43,0.45,2.01 c0.3,0.58,0.72,1.03,1.26,1.35c0.54,0.32,1.16,0.48,1.87,0.48c0.87,0,1.58-0.24,2.13-0.71c0.55-0.47,0.89-1.11,1.03-1.92h-3.88 v-1.79h6.41v1.79c-0.12,0.81-0.44,1.59-0.95,2.32c-0.51,0.73-1.18,1.32-2,1.77c-0.82,0.45-1.73,0.68-2.74,0.68 c-1.09,0-2.1-0.25-3.01-0.76c-0.92-0.51-1.64-1.22-2.17-2.12c-0.53-0.91-0.79-1.94-0.79-3.09c0-1.14,0.26-2.16,0.79-3.07 c0.53-0.91,1.25-1.62,2.17-2.13c0.91-0.51,1.92-0.77,3.01-0.77C70.44,305.06,71.57,305.38,72.56,306.03z" class="st3"/><path d="M83.81,314.71h-4.55l-0.75,2.19h-2.49l4.13-11.71h2.79l4.12,11.71h-2.49L83.81,314.71z M83.21,312.91 l-1.67-4.87l-1.66,4.87H83.21z" class="st3"/><path d="M98.88,316.91h-2.36l-5.29-8.1v8.1h-2.36v-11.71h2.36l5.29,8.1v-8.1h2.36V316.91z" class="st3"/><path d="M110.29,306.03c0.99,0.65,1.69,1.56,2.12,2.73h-2.83c-0.52-1.03-1.42-1.54-2.68-1.54 c-0.7,0-1.32,0.16-1.87,0.47c-0.54,0.31-0.96,0.76-1.26,1.34c-0.3,0.58-0.45,1.25-0.45,2.01c0,0.76,0.15,1.43,0.45,2.01 c0.3,0.58,0.72,1.03,1.26,1.35c0.54,0.32,1.16,0.48,1.87,0.48c1.25,0,2.14-0.51,2.68-1.54h2.83c-0.42,1.17-1.13,2.08-2.12,2.72 c-0.99,0.64-2.12,0.96-3.39,0.96c-1.09,0-2.1-0.25-3.01-0.76c-0.92-0.51-1.64-1.22-2.17-2.12c-0.53-0.91-0.79-1.94-0.79-3.09 c0-1.14,0.26-2.16,0.79-3.07c0.53-0.91,1.25-1.62,2.17-2.13c0.91-0.51,1.92-0.77,3.01-0.77 C108.17,305.06,109.3,305.38,110.29,306.03z" class="st3"/><path d="M116.99,307v3.06h3.88v1.81h-3.88v3.23h4.38v1.81h-6.74v-11.71h6.74V307H116.99z" class="st3"/><path d="M141.6,305.23v1.81h-4.87v3.06h3.71v1.81h-3.71v5h-2.36v-11.68H141.6z" class="st3"/><path d="M150.55,314.71H146l-0.75,2.19h-2.49l4.13-11.71h2.79l4.12,11.71h-2.49L150.55,314.71z M149.95,312.91 l-1.67-4.87l-1.66,4.87H149.95z" class="st3"/><path d="M164.33,306.03c0.99,0.65,1.69,1.56,2.12,2.73h-2.83c-0.52-1.03-1.42-1.54-2.68-1.54 c-0.7,0-1.32,0.16-1.87,0.47c-0.54,0.31-0.96,0.76-1.26,1.34c-0.3,0.58-0.45,1.25-0.45,2.01c0,0.76,0.15,1.43,0.45,2.01 c0.3,0.58,0.72,1.03,1.26,1.35c0.54,0.32,1.16,0.48,1.87,0.48c1.25,0,2.14-0.51,2.68-1.54h2.83c-0.42,1.17-1.13,2.08-2.12,2.72 c-0.99,0.64-2.12,0.96-3.39,0.96c-1.09,0-2.1-0.25-3.01-0.76c-0.92-0.51-1.64-1.22-2.17-2.12c-0.53-0.91-0.79-1.94-0.79-3.09 c0-1.14,0.26-2.16,0.79-3.07c0.53-0.91,1.25-1.62,2.17-2.13c0.91-0.51,1.92-0.77,3.01-0.77 C162.21,305.06,163.34,305.38,164.33,306.03z" class="st3"/><path d="M175.58,314.71h-4.55l-0.75,2.19h-2.49l4.13-11.71h2.79l4.12,11.71h-2.49L175.58,314.71z M174.98,312.91 l-1.67-4.87l-1.66,4.87H174.98z" class="st3"/><path d="M190.1,314.15c-0.52,0.88-1.26,1.55-2.21,2.03c-0.95,0.48-2.04,0.72-3.28,0.72h-3.96v-11.68h3.96 c1.24,0,2.33,0.24,3.28,0.73c0.95,0.49,1.68,1.17,2.21,2.05c0.52,0.88,0.79,1.91,0.79,3.08S190.63,313.28,190.1,314.15z M187.47,314.03c0.68-0.73,1.02-1.71,1.02-2.94s-0.34-2.22-1.02-2.94c-0.68-0.73-1.63-1.09-2.86-1.09h-1.61v8.06h1.61 C185.84,315.12,186.79,314.75,187.47,314.03z" class="st3"/><path d="M195.29,307v3.06h3.88v1.81h-3.88v3.23h4.38v1.81h-6.74v-11.71h6.74V307H195.29z" class="st3"/><path d="M222.12,314.15c-0.52,0.88-1.26,1.55-2.21,2.03c-0.95,0.48-2.04,0.72-3.28,0.72h-3.96v-11.68h3.96 c1.24,0,2.33,0.24,3.28,0.73c0.95,0.49,1.68,1.17,2.21,2.05c0.52,0.88,0.79,1.91,0.79,3.08S222.65,313.28,222.12,314.15z M219.5,314.03c0.68-0.73,1.02-1.71,1.02-2.94s-0.34-2.22-1.02-2.94c-0.68-0.73-1.63-1.09-2.86-1.09h-1.61v8.06h1.61 C217.86,315.12,218.82,314.75,219.5,314.03z" class="st3"/><path d="M227.31,307v3.06h3.88v1.81h-3.88v3.23h4.38v1.81h-6.74v-11.71h6.74V307H227.31z" class="st3"/><path d="M241.96,315.25c-0.34,0.54-0.83,0.96-1.46,1.29c-0.63,0.32-1.36,0.49-2.2,0.49c-1.28,0-2.32-0.3-3.1-0.9 c-0.78-0.6-1.17-1.44-1.17-2.52h2.51c0.04,0.5,0.21,0.88,0.51,1.15s0.71,0.39,1.25,0.39c0.54,0,0.96-0.14,1.27-0.42 c0.31-0.28,0.47-0.64,0.47-1.09c0-0.36-0.11-0.65-0.33-0.87c-0.22-0.22-0.49-0.4-0.8-0.52c-0.32-0.12-0.77-0.26-1.35-0.42 c-0.75-0.19-1.36-0.38-1.82-0.59c-0.47-0.2-0.87-0.52-1.2-0.95c-0.33-0.43-0.5-1.01-0.5-1.75c0-0.7,0.18-1.32,0.53-1.85 c0.35-0.53,0.84-0.94,1.46-1.22c0.62-0.28,1.33-0.43,2.12-0.43c1.22,0,2.19,0.28,2.93,0.83c0.74,0.55,1.14,1.39,1.2,2.52h-2.58 c-0.05-0.45-0.21-0.8-0.5-1.06c-0.29-0.26-0.66-0.39-1.12-0.39c-0.48,0-0.87,0.12-1.16,0.36c-0.3,0.24-0.44,0.61-0.44,1.1 c0,0.37,0.11,0.67,0.33,0.9c0.22,0.23,0.49,0.4,0.81,0.53c0.32,0.12,0.77,0.26,1.34,0.4c0.75,0.19,1.36,0.39,1.82,0.59 c0.47,0.2,0.87,0.52,1.2,0.95c0.33,0.43,0.49,1.01,0.49,1.75C242.47,314.13,242.3,314.71,241.96,315.25z" class="st3"/><path d="M247.27,305.23v11.68h-2.36v-11.68H247.27z" class="st3"/><path d="M258.67,306.03c0.99,0.65,1.69,1.56,2.12,2.73h-2.83c-0.52-1.03-1.42-1.54-2.68-1.54 c-0.7,0-1.32,0.16-1.87,0.47c-0.54,0.31-0.96,0.76-1.26,1.34c-0.3,0.58-0.45,1.25-0.45,2.01c0,0.76,0.15,1.43,0.45,2.01 c0.3,0.58,0.72,1.03,1.26,1.35c0.54,0.32,1.16,0.48,1.87,0.48c0.87,0,1.58-0.24,2.13-0.71c0.55-0.47,0.89-1.11,1.03-1.92h-3.88 v-1.79h6.41v1.79c-0.12,0.81-0.44,1.59-0.95,2.32c-0.51,0.73-1.18,1.32-2,1.77c-0.82,0.45-1.73,0.68-2.74,0.68 c-1.09,0-2.1-0.25-3.01-0.76c-0.92-0.51-1.64-1.22-2.17-2.12c-0.53-0.91-0.79-1.94-0.79-3.09c0-1.14,0.26-2.16,0.79-3.07 c0.53-0.91,1.25-1.62,2.17-2.13c0.91-0.51,1.92-0.77,3.01-0.77C256.56,305.06,257.69,305.38,258.67,306.03z" class="st3"/><path d="M273.02,316.91h-2.36l-5.29-8.1v8.1h-2.36v-11.71h2.36l5.29,8.1v-8.1h2.36V316.91z" class="st3"/><path d="M283.38,315.25c-0.34,0.54-0.83,0.96-1.46,1.29c-0.63,0.32-1.36,0.49-2.2,0.49c-1.28,0-2.32-0.3-3.1-0.9 c-0.78-0.6-1.17-1.44-1.17-2.52h2.51c0.04,0.5,0.21,0.88,0.51,1.15c0.3,0.26,0.71,0.39,1.25,0.39s0.96-0.14,1.27-0.42 c0.31-0.28,0.47-0.64,0.47-1.09c0-0.36-0.11-0.65-0.33-0.87c-0.22-0.22-0.49-0.4-0.8-0.52c-0.32-0.12-0.77-0.26-1.35-0.42 c-0.75-0.19-1.36-0.38-1.82-0.59c-0.47-0.2-0.87-0.52-1.2-0.95c-0.33-0.43-0.5-1.01-0.5-1.75c0-0.7,0.18-1.32,0.53-1.85 c0.35-0.53,0.84-0.94,1.46-1.22c0.62-0.28,1.33-0.43,2.12-0.43c1.22,0,2.19,0.28,2.93,0.83c0.74,0.55,1.14,1.39,1.2,2.52h-2.58 c-0.05-0.45-0.21-0.8-0.5-1.06c-0.29-0.26-0.66-0.39-1.12-0.39c-0.48,0-0.87,0.12-1.16,0.36s-0.44,0.61-0.44,1.1 c0,0.37,0.11,0.67,0.33,0.9c0.22,0.23,0.49,0.4,0.81,0.53c0.32,0.12,0.77,0.26,1.34,0.4c0.75,0.19,1.36,0.39,1.82,0.59 c0.47,0.2,0.87,0.52,1.2,0.95c0.33,0.43,0.49,1.01,0.49,1.75C283.89,314.13,283.72,314.71,283.38,315.25z" class="st3"/></g></g></g></g></g></svg>